<svg width="105" height="21" viewBox="0 0 105 21" fill="none" xmlns="http://www.w3.org/2000/svg">
<g id="Vector">
<path d="M33.1403 8.93111C33.1403 9.56952 32.985 10.168 32.6744 10.7266C32.3752 11.2852 31.8978 11.7356 31.242 12.0776C30.5977 12.4196 29.7808 12.5906 28.7913 12.5906H26.7721V17.1735H24.356V5.23744H28.7913C29.7233 5.23744 30.5171 5.39705 31.1729 5.71625C31.8287 6.03546 32.3177 6.47436 32.6399 7.03297C32.9735 7.59158 33.1403 8.22429 33.1403 8.93111ZM28.6878 10.6582C29.3551 10.6582 29.8498 10.51 30.172 10.2136C30.4941 9.90582 30.6552 9.47832 30.6552 8.93111C30.6552 7.76829 29.9994 7.18688 28.6878 7.18688H26.7721V10.6582H28.6878Z" fill="#454545"/>
<path d="M37.2719 9.17051C37.5825 8.6689 37.9852 8.2756 38.48 7.99059C38.9862 7.70559 39.5615 7.56308 40.2058 7.56308V10.0768H39.5672C38.8079 10.0768 38.2326 10.2535 37.8414 10.6069C37.4617 10.9603 37.2719 11.576 37.2719 12.4538V17.1735H34.8558V7.69989H37.2719V9.17051Z" fill="#454545"/>
<path d="M46.0786 17.3274C45.1582 17.3274 44.3298 17.1278 43.5935 16.7288C42.8571 16.3184 42.2761 15.7427 41.8504 15.0017C41.4362 14.2607 41.2291 13.4057 41.2291 12.4367C41.2291 11.4677 41.442 10.6126 41.8677 9.87162C42.3049 9.13061 42.8974 8.5606 43.6452 8.16159C44.3931 7.75119 45.2272 7.54598 46.1477 7.54598C47.0681 7.54598 47.9022 7.75119 48.6501 8.16159C49.3979 8.5606 49.9847 9.13061 50.4104 9.87162C50.8476 10.6126 51.0662 11.4677 51.0662 12.4367C51.0662 13.4057 50.8418 14.2607 50.3931 15.0017C49.9559 15.7427 49.3576 16.3184 48.5983 16.7288C47.8504 17.1278 47.0106 17.3274 46.0786 17.3274ZM46.0786 15.2411C46.5158 15.2411 46.9243 15.1385 47.3039 14.9333C47.6951 14.7167 48.0058 14.3975 48.2359 13.9757C48.466 13.5539 48.581 13.0409 48.581 12.4367C48.581 11.5361 48.3394 10.8463 47.8562 10.3675C47.3845 9.87732 46.8035 9.63222 46.1131 9.63222C45.4228 9.63222 44.8418 9.87732 44.3701 10.3675C43.9099 10.8463 43.6798 11.5361 43.6798 12.4367C43.6798 13.3373 43.9041 14.0327 44.3528 14.5229C44.813 15.0017 45.3883 15.2411 46.0786 15.2411Z" fill="#454545"/>
<path d="M57.6381 17.2932C56.7982 17.2932 56.0389 17.1507 55.3601 16.8656C54.6928 16.5806 54.1635 16.1702 53.7723 15.6344C53.3812 15.0986 53.1798 14.4659 53.1683 13.7363H55.757C55.7915 14.2265 55.9641 14.6141 56.2748 14.8991C56.5969 15.1841 57.0341 15.3266 57.5864 15.3266C58.1501 15.3266 58.5931 15.1955 58.9152 14.9333C59.2374 14.6597 59.3985 14.3063 59.3985 13.8731C59.3985 13.5197 59.2892 13.229 59.0706 13.001C58.852 12.773 58.5758 12.5963 58.2422 12.4709C57.92 12.3341 57.4713 12.1859 56.896 12.0263C56.1137 11.7983 55.4751 11.576 54.9804 11.3593C54.4972 11.1313 54.0772 10.795 53.7206 10.3504C53.3754 9.89442 53.2028 9.29021 53.2028 8.5378C53.2028 7.83099 53.3812 7.21538 53.7378 6.69097C54.0945 6.16656 54.595 5.76755 55.2393 5.49395C55.8836 5.20894 56.6199 5.06644 57.4483 5.06644C58.6909 5.06644 59.6976 5.36854 60.4685 5.97275C61.2508 6.56557 61.6823 7.39778 61.7628 8.4694H59.1051C59.0821 8.05899 58.9037 7.72269 58.5701 7.46048C58.2479 7.18688 57.8165 7.05007 57.2757 7.05007C56.804 7.05007 56.4243 7.16978 56.1367 7.40918C55.8606 7.64858 55.7225 7.99629 55.7225 8.4523C55.7225 8.7715 55.826 9.03941 56.0331 9.25601C56.2517 9.46122 56.5164 9.63222 56.827 9.76902C57.1492 9.89442 57.5979 10.0426 58.1731 10.2136C58.9555 10.4416 59.594 10.6696 60.0888 10.8976C60.5835 11.1256 61.0092 11.4677 61.3659 11.9237C61.7225 12.3797 61.9009 12.9782 61.9009 13.7192C61.9009 14.3576 61.7341 14.9504 61.4004 15.4976C61.0667 16.0448 60.5778 16.4837 59.9335 16.8143C59.2892 17.1336 58.5241 17.2932 57.6381 17.2932Z" fill="#28AD88"/>
<path d="M69.3801 7.56308C70.1049 7.56308 70.7492 7.72269 71.313 8.04189C71.8767 8.3497 72.3139 8.81141 72.6246 9.42702C72.9467 10.0312 73.1078 10.7608 73.1078 11.6159V17.1735H70.6917V11.9408C70.6917 11.1883 70.5018 10.6126 70.1222 10.2136C69.7425 9.80322 69.2248 9.59802 68.569 9.59802C67.9016 9.59802 67.3724 9.80322 66.9812 10.2136C66.6015 10.6126 66.4117 11.1883 66.4117 11.9408V17.1735H63.9956V4.51923H66.4117V8.87981C66.7223 8.4694 67.1365 8.15019 67.6543 7.92219C68.172 7.68279 68.7473 7.56308 69.3801 7.56308Z" fill="#28AD88"/>
<path d="M76.6308 6.57127C76.2051 6.57127 75.8484 6.44016 75.5607 6.17796C75.2846 5.90435 75.1466 5.56805 75.1466 5.16904C75.1466 4.77003 75.2846 4.43943 75.5607 4.17722C75.8484 3.90362 76.2051 3.76682 76.6308 3.76682C77.0564 3.76682 77.4074 3.90362 77.6835 4.17722C77.9711 4.43943 78.1149 4.77003 78.1149 5.16904C78.1149 5.56805 77.9711 5.90435 77.6835 6.17796C77.4074 6.44016 77.0564 6.57127 76.6308 6.57127ZM77.8216 7.69989V17.1735H75.4054V7.69989H77.8216Z" fill="#28AD88"/>
<path d="M89.0966 12.2315C89.0966 12.5735 89.0736 12.8813 89.0275 13.1549H82.038C82.0956 13.8389 82.3372 14.3747 82.7629 14.7623C83.1886 15.1499 83.7121 15.3437 84.3334 15.3437C85.2308 15.3437 85.8693 14.9618 86.249 14.198H88.855C88.5788 15.11 88.0496 15.8624 87.2672 16.4552C86.4849 17.0366 85.5242 17.3274 84.3851 17.3274C83.4647 17.3274 82.6363 17.1278 81.9 16.7288C81.1751 16.3184 80.6056 15.7427 80.1914 15.0017C79.7887 14.2607 79.5874 13.4057 79.5874 12.4367C79.5874 11.4563 79.7887 10.5955 80.1914 9.85452C80.5941 9.11351 81.1579 8.5435 81.8827 8.14449C82.6076 7.74549 83.4417 7.54598 84.3851 7.54598C85.2941 7.54598 86.1052 7.73979 86.8185 8.12739C87.5434 8.515 88.1014 9.06791 88.4926 9.78612C88.8952 10.4929 89.0966 11.308 89.0966 12.2315ZM86.5942 11.5475C86.5827 10.9318 86.3583 10.4416 85.9211 10.0768C85.4839 9.70062 84.9489 9.51252 84.3161 9.51252C83.7178 9.51252 83.2116 9.69492 82.7974 10.0597C82.3947 10.4131 82.1473 10.909 82.0553 11.5475H86.5942Z" fill="#28AD88"/>
<path d="M93.2763 4.51923V17.1735H90.8601V4.51923H93.2763Z" fill="#28AD88"/>
<path d="M95.0421 12.4025C95.0421 11.4449 95.232 10.5955 95.6116 9.85452C96.0028 9.11351 96.5321 8.5435 97.1994 8.14449C97.8667 7.74549 98.6088 7.54598 99.4257 7.54598C100.047 7.54598 100.639 7.68279 101.203 7.95639C101.767 8.21859 102.216 8.572 102.549 9.01661V4.51923H105V17.1735H102.549V15.7712C102.25 16.2386 101.83 16.6148 101.29 16.8998C100.749 17.1849 100.122 17.3274 99.4084 17.3274C98.603 17.3274 97.8667 17.1222 97.1994 16.7117C96.5321 16.3013 96.0028 15.7256 95.6116 14.9846C95.232 14.2322 95.0421 13.3715 95.0421 12.4025ZM102.567 12.4367C102.567 11.8553 102.452 11.3593 102.221 10.9489C101.991 10.5271 101.681 10.2079 101.29 9.99133C100.898 9.76332 100.478 9.64932 100.03 9.64932C99.581 9.64932 99.1668 9.75762 98.7871 9.97423C98.4074 10.1908 98.0968 10.51 97.8552 10.9318C97.6251 11.3422 97.51 11.8325 97.51 12.4025C97.51 12.9725 97.6251 13.4741 97.8552 13.9073C98.0968 14.3291 98.4074 14.654 98.7871 14.882C99.1783 15.11 99.5925 15.224 100.03 15.224C100.478 15.224 100.898 15.1157 101.29 14.8991C101.681 14.6711 101.991 14.3519 102.221 13.9415C102.452 13.5197 102.567 13.0181 102.567 12.4367Z" fill="#28AD88"/>
<path d="M18.1806 3.86099L18.0897 3.01345H17.2724C13.0949 3.01345 9.64393 0.376682 9.64393 0.376682L9.09903 0L8.55414 0.470852C8.55414 0.376682 5.10316 3.01345 0.925657 3.01345H0.108319L0.017504 3.86099C0.017504 3.95516 -0.799834 16.8565 8.73577 20.8117L9.09903 21L9.46229 20.8117C18.9979 16.8565 18.1806 4.04933 18.1806 3.86099ZM9.09903 18.9283V2.26009C10.1888 3.01345 13.0041 4.61435 16.3643 4.89686C16.3643 7.53363 15.8194 15.9148 9.09903 18.9283Z" fill="#28AD88"/>
</g>
</svg>
