<svg width="151" height="40" viewBox="0 0 151 40" fill="none" xmlns="http://www.w3.org/2000/svg">
<g id="Logo 1" opacity="0.5">
<path id="Vector" d="M44.0531 12.8686H47.7251V27.7257H44.0531V12.8686ZM49.1894 22.1371C49.1894 18.4571 51.4773 16.2514 54.9091 16.2514C58.3409 16.2514 60.6288 18.4571 60.6288 22.1371C60.6288 25.8171 58.421 28.0457 54.9091 28.0457C51.3972 28.0457 49.1894 25.8971 49.1894 22.1371ZM56.9911 22.1371C56.9911 20.1143 56.2017 18.9257 54.9434 18.9257C53.6851 18.9257 52.9072 20.0686 52.9072 22.1371C52.9072 24.2057 53.6851 25.3371 54.9434 25.3371C56.2017 25.3371 57.0139 24.2057 57.0139 22.1486L56.9911 22.1371ZM62.093 28.4914H65.6392C65.8006 28.8728 66.0826 29.1911 66.4421 29.3974C66.8015 29.6038 67.2186 29.687 67.6297 29.6343C69.0367 29.6343 69.7689 28.88 69.7689 27.76V25.7029H69.7803C69.4773 26.3434 68.9872 26.8773 68.3747 27.2343C67.7622 27.5913 67.0558 27.7546 66.3485 27.7029C63.6602 27.7029 61.8757 25.6571 61.8757 22.1371C61.8757 18.6171 63.5801 16.4229 66.4514 16.4229C67.1768 16.3841 67.8965 16.571 68.511 16.9578C69.1256 17.3447 69.605 17.9125 69.8833 18.5829H69.7803V16.5143H73.418V27.6457C73.418 30.3314 71.0386 32.0114 67.5382 32.0114C64.358 32 62.3218 30.5486 62.1159 28.5029L62.093 28.4914ZM69.7803 22.1371C69.7803 20.3429 68.9567 19.2114 67.6526 19.2114C66.3485 19.2114 65.5477 20.3543 65.5477 22.1371C65.5477 23.92 66.337 24.9714 67.6526 24.9714C68.9681 24.9714 69.7803 24 69.7803 22.1371ZM74.8708 22.1371C74.8708 18.4571 77.1587 16.2514 80.5905 16.2514C84.0223 16.2514 86.3102 18.4571 86.3102 22.1371C86.3102 25.8171 84.091 28.0457 80.5905 28.0457C77.0901 28.0457 74.8937 25.8971 74.8937 22.1371H74.8708ZM82.6725 22.1371C82.6725 20.1143 81.8717 18.9257 80.6248 18.9257C79.378 18.9257 78.5886 20.0686 78.5886 22.1371C78.5886 24.2057 79.3665 25.3371 80.6248 25.3371C81.8832 25.3371 82.6954 24.2057 82.6954 22.1486L82.6725 22.1371ZM87.7973 13.8057C87.7813 13.432 87.8776 13.0621 88.0738 12.7435C88.27 12.4249 88.5572 12.1723 88.8983 12.0182C89.2394 11.8639 89.6188 11.8152 89.9879 11.8783C90.3569 11.9413 90.6986 12.1131 90.969 12.3718C91.2395 12.6305 91.4263 12.964 91.5054 13.3296C91.5845 13.6952 91.5523 14.0761 91.413 14.4232C91.2737 14.7704 91.0335 15.068 90.7235 15.2777C90.4135 15.4874 90.0478 15.5997 89.6734 15.6C89.4342 15.6061 89.196 15.5646 88.973 15.4781C88.7499 15.3914 88.5462 15.2614 88.3738 15.0955C88.2014 14.9297 88.0637 14.7313 87.9687 14.5118C87.8736 14.2923 87.8232 14.0562 87.8202 13.8171L87.7973 13.8057ZM87.7973 16.5029H91.5151V27.7714H87.8545L87.7973 16.5029ZM104.888 22.1371C104.888 25.8057 103.241 27.9314 100.438 27.9314C99.7204 27.9757 99.0066 27.7987 98.3929 27.4248C97.7791 27.0507 97.2951 26.4976 97.0061 25.84H96.9374V31.3943H93.2654V16.5371H96.9145V18.5486H96.9832C97.2623 17.8781 97.7416 17.3097 98.3557 16.9211C98.9699 16.5326 99.6889 16.3426 100.415 16.3771C103.298 16.3543 104.956 18.4686 104.956 22.1486L104.888 22.1371ZM101.147 22.1371C101.147 20.3543 100.312 19.2 99.0194 19.2C97.7267 19.2 96.9145 20.3429 96.9031 22.1371C96.8917 23.9314 97.7267 25.0629 99.0194 25.0629C100.312 25.0629 101.216 24 101.216 22.1486L101.147 22.1371ZM111.157 16.24C114.234 16.24 116.144 17.6914 116.167 20.0229H112.815C112.815 19.2114 112.14 18.7086 111.134 18.7086C110.127 18.7086 109.647 19.0971 109.647 19.68C109.647 20.2629 110.07 20.4457 110.916 20.6171L113.273 21.0971C115.561 21.5771 116.476 22.4914 116.476 24.1943C116.476 26.48 114.36 28.0343 111.214 28.0343C108.068 28.0343 106.02 26.5257 105.872 24.2286H109.429C109.532 25.0629 110.196 25.5543 111.271 25.5543C112.346 25.5543 112.85 25.2114 112.85 24.6057C112.85 24 112.506 23.8971 111.626 23.7143L109.498 23.2686C107.29 22.8 106.135 21.6457 106.135 19.92C106.203 17.68 108.125 16.2514 111.225 16.2514L111.157 16.24ZM128.773 27.76H125.216V25.6457H125.147C124.948 26.351 124.514 26.9673 123.917 27.3931C123.32 27.8191 122.596 28.029 121.864 27.9886C121.311 28.0065 120.76 27.9075 120.249 27.6979C119.737 27.4885 119.275 27.1731 118.894 26.7728C118.512 26.3723 118.22 25.8959 118.036 25.3747C117.852 24.8536 117.78 24.2993 117.826 23.7486V16.5143H121.498V22.96C121.498 24.2857 122.196 25.0057 123.34 25.0057C123.608 25.0037 123.873 24.9441 124.116 24.8312C124.36 24.7182 124.576 24.5543 124.75 24.3506C124.925 24.147 125.054 23.9082 125.129 23.6506C125.202 23.3929 125.22 23.1224 125.181 22.8571V16.5143H128.842L128.773 27.76ZM130.546 16.5029H134.115V18.6743H134.196C134.392 17.9786 134.816 17.368 135.397 16.9378C135.979 16.5078 136.687 16.2824 137.41 16.2971C138.136 16.2341 138.861 16.4439 139.439 16.8856C140.019 17.3273 140.413 17.9693 140.544 18.6857H140.705C140.933 17.9654 141.393 17.3407 142.014 16.9088C142.634 16.4768 143.381 16.2618 144.136 16.2971C144.639 16.2781 145.14 16.3651 145.605 16.5527C146.072 16.7401 146.493 17.0239 146.842 17.3854C147.191 17.7467 147.458 18.1777 147.629 18.6499C147.8 19.1222 147.869 19.625 147.831 20.1257V27.7714H144.136V21.0629C144.136 19.92 143.599 19.28 142.558 19.28C142.327 19.2762 142.098 19.3224 141.886 19.4152C141.675 19.5081 141.487 19.6456 141.334 19.8182C141.18 19.9909 141.066 20.1944 140.999 20.4152C140.932 20.636 140.914 20.8686 140.945 21.0971V27.7714H137.444V21.0286C137.444 19.8857 136.884 19.28 135.877 19.28C135.644 19.2782 135.413 19.3262 135.2 19.4208C134.986 19.5155 134.796 19.6546 134.641 19.8289C134.486 20.0032 134.371 20.2086 134.302 20.4312C134.232 20.6539 134.212 20.8888 134.241 21.12V27.7714H130.569L130.546 16.5029Z" fill="#103040"/>
<path id="Vector_2" d="M36.7891 13.84C36.7892 11.5654 36.1017 9.34372 34.8166 7.46607C33.5315 5.58843 31.7086 4.14231 29.587 3.31717C27.4653 2.49202 25.1436 2.3263 22.926 2.84172C20.7084 3.35714 18.6984 4.52966 17.1591 6.20571H2.88275V36.3086H33.0255V22.24C34.2086 21.1828 35.1553 19.8883 35.8038 18.4409C36.4523 16.9935 36.7881 15.4258 36.7891 13.84ZM30.9893 13.84C30.9916 14.9299 30.6702 15.9961 30.0657 16.9035C29.4611 17.8109 28.6009 18.5187 27.5935 18.9374C26.5862 19.3561 25.4772 19.4669 24.4069 19.2555C23.3366 19.0443 22.353 18.5206 21.5808 17.7506C20.8085 16.9807 20.2823 15.9992 20.0686 14.9303C19.8549 13.8615 19.9635 12.7533 20.3804 11.7461C20.7974 10.7388 21.5041 9.87781 22.411 9.27202C23.3181 8.66622 24.3846 8.34286 25.4755 8.34285C26.9359 8.34285 28.3366 8.92165 29.3703 9.95223C30.4041 10.9828 30.9863 12.381 30.9893 13.84ZM27.2258 30.5143H8.68252V12H14.3336C14.2244 12.6074 14.167 13.223 14.162 13.84C14.1651 16.8368 15.358 19.7099 17.4791 21.829C19.6 23.948 22.4759 25.1399 25.4755 25.1429C26.062 25.1398 26.6473 25.0901 27.2258 24.9943V30.5143Z" fill="#103040"/>
</g>
</svg>
