<svg width="155" height="40" viewBox="0 0 155 40" fill="none" xmlns="http://www.w3.org/2000/svg">
<g id="Logo 5" opacity="0.5">
<path id="Vector" d="M46.0875 12.5875H49.8375V27.75H46.0875V12.5875ZM51.325 22.025C51.325 18.275 53.625 16.0375 57.175 16.0375C60.725 16.0375 63.025 18.275 63.025 22.025C63.025 25.775 60.775 28.025 57.175 28.025C53.575 28.025 51.325 25.8375 51.325 22.025ZM59.2625 22.025C59.2625 19.9625 58.45 18.75 57.175 18.75C55.9 18.75 55.1 20 55.1 22.025C55.1 24.05 55.8875 25.275 57.175 25.275C58.4625 25.275 59.2625 24.125 59.2625 22.0375V22.025ZM64.4375 28.4875H68.0375C68.2089 28.8681 68.4985 29.1833 68.8634 29.386C69.2282 29.5886 69.6489 29.6681 70.0625 29.6125C71.4875 29.6125 72.2375 28.8375 72.2375 27.7125V25.6125H72.1625C71.8637 26.2561 71.3789 26.7954 70.7706 27.1609C70.1624 27.5263 69.4585 27.701 68.75 27.6625C66.0125 27.6625 64.2 25.575 64.2 21.9875C64.2 18.4 65.925 16.1375 68.8 16.1375C69.5307 16.1089 70.2527 16.3042 70.8694 16.6974C71.486 17.0906 71.9677 17.6629 72.25 18.3375V16.25H76V27.625C76 30.3625 73.5875 32.0625 70.025 32.0625C66.7125 32.0625 64.65 30.575 64.4375 28.5V28.4875ZM72.25 22.0125C72.25 20.1875 71.4125 19.0375 70.0875 19.0375C68.7625 19.0375 67.95 20.175 67.95 22.0125C67.95 23.85 68.75 24.8875 70.0875 24.8875C71.425 24.8875 72.25 23.875 72.25 22.025V22.0125ZM77.4125 22.0125C77.4125 18.2625 79.7125 16.025 83.2625 16.025C86.8125 16.025 89.125 18.2625 89.125 22.0125C89.125 25.7625 86.875 28.0125 83.2625 28.0125C79.65 28.0125 77.4125 25.8375 77.4125 22.025V22.0125ZM85.35 22.0125C85.35 19.95 84.5375 18.7375 83.2625 18.7375C81.9875 18.7375 81.25 20 81.25 22.0375C81.25 24.075 82.0375 25.2875 83.3125 25.2875C84.5875 25.2875 85.35 24.125 85.35 22.0375V22.0125ZM90.55 13.525C90.5401 13.1464 90.643 12.7734 90.8454 12.4533C91.0479 12.1331 91.3407 11.8803 91.687 11.7269C92.0332 11.5734 92.4172 11.5263 92.7904 11.5913C93.1635 11.6564 93.5089 11.8308 93.7827 12.0924C94.0567 12.354 94.2467 12.691 94.3289 13.0607C94.411 13.4305 94.3815 13.8162 94.244 14.1692C94.1066 14.5221 93.8675 14.8264 93.557 15.0433C93.2466 15.2601 92.8786 15.38 92.5 15.3875C92.249 15.4048 91.9971 15.3699 91.7603 15.2851C91.5233 15.2004 91.3065 15.0676 91.1234 14.895C90.9402 14.7225 90.7947 14.5139 90.6961 14.2824C90.5974 14.051 90.5476 13.8016 90.55 13.55V13.525ZM90.55 16.275H94.3V27.75H90.55V16.275ZM107.912 22.0125C107.912 25.7625 106.25 27.9 103.4 27.9C102.669 27.9469 101.942 27.7683 101.316 27.3883C100.69 27.0081 100.195 26.445 99.9 25.775H99.825V31.425H96.075V16.25H99.825V18.3H99.9C100.182 17.6189 100.666 17.0411 101.288 16.6453C101.91 16.2494 102.639 16.0546 103.375 16.0875C106.25 16.1375 107.962 18.2875 107.962 22.0375L107.912 22.0125ZM104.162 22.0125C104.162 20.1875 103.325 19.025 102.012 19.025C100.7 19.025 99.8625 20.2 99.85 22.0125C99.8375 23.825 100.7 24.9875 102.012 24.9875C103.325 24.9875 104.162 23.85 104.162 22.0375V22.0125ZM114.35 16.0125C117.463 16.0125 119.35 17.4875 119.438 19.85H116.025C116.025 19.0375 115.35 18.525 114.312 18.525C113.275 18.525 112.812 18.925 112.812 19.5125C112.812 20.1 113.225 20.2875 114.062 20.4625L116.462 20.95C118.75 21.4375 119.725 22.3625 119.725 24.1C119.725 26.475 117.562 28 114.375 28C111.187 28 109.1 26.475 108.937 24.1375H112.55C112.662 24.9875 113.338 25.4875 114.438 25.4875C115.537 25.4875 116.037 25.125 116.037 24.525C116.037 23.925 115.688 23.8 114.787 23.6125L112.625 23.15C110.387 22.6875 109.212 21.5 109.212 19.75C109.237 17.5 111.25 16.0375 114.35 16.0375V16.0125ZM132.237 27.725H128.625V25.5875H128.55C128.351 26.3051 127.914 26.9333 127.309 27.3676C126.704 27.8019 125.969 28.0162 125.225 27.975C124.655 28.0074 124.085 27.9171 123.553 27.7102C123.021 27.5034 122.54 27.1849 122.142 26.776C121.744 26.3672 121.438 25.8776 121.245 25.3405C121.053 24.8034 120.978 24.2311 121.025 23.6625V16.25H124.775V22.8C124.775 24.1625 125.475 24.8875 126.637 24.8875C126.91 24.888 127.18 24.8304 127.429 24.7182C127.676 24.6061 127.899 24.4421 128.079 24.2374C128.257 24.0325 128.392 23.7916 128.471 23.5309C128.55 23.27 128.574 22.9953 128.538 22.725V16.25H132.288L132.237 27.725ZM134.05 16.25H137.675V18.4625H137.75C137.949 17.7544 138.377 17.1321 138.967 16.6934C139.557 16.2546 140.277 16.0239 141.012 16.0375C141.761 15.9776 142.504 16.2015 143.095 16.6648C143.685 17.128 144.08 17.7965 144.2 18.5375H144.275C144.501 17.7886 144.971 17.1366 145.61 16.684C146.247 16.2314 147.019 16.0039 147.8 16.0375C148.31 16.0204 148.817 16.1108 149.29 16.3028C149.764 16.4946 150.19 16.784 150.544 17.1518C150.897 17.5196 151.17 17.9578 151.344 18.4376C151.516 18.9175 151.587 19.4286 151.55 19.9375V27.75H147.8V20.9375C147.8 19.6875 147.237 19.1125 146.188 19.1125C145.954 19.1105 145.721 19.1588 145.507 19.254C145.294 19.3493 145.102 19.4892 144.947 19.6646C144.792 19.84 144.676 20.0465 144.607 20.2704C144.539 20.4944 144.52 20.7304 144.55 20.9625V27.75H140.987V20.8875C140.987 19.7375 140.425 19.1125 139.4 19.1125C139.164 19.1126 138.929 19.1629 138.714 19.26C138.497 19.3573 138.304 19.4991 138.147 19.6763C137.99 19.8534 137.872 20.0619 137.801 20.288C137.731 20.514 137.709 20.7524 137.738 20.9875V27.75H133.988L134.05 16.25Z" fill="#103040"/>
<path id="Vector_2" d="M35.6 13.275C34.9639 11.8205 34.122 10.4649 33.1 9.25C31.5894 7.40043 29.7041 5.89174 27.5684 4.82325C25.4326 3.75478 23.0947 3.15072 20.7087 3.05083C18.3227 2.95094 15.9426 3.35749 13.725 4.24374C11.5075 5.12998 9.50271 6.47582 7.84275 8.19267C6.18277 9.9095 4.90521 11.9584 4.09415 14.2046C3.28308 16.4508 2.9569 18.8433 3.13707 21.2245C3.31726 23.6059 3.9997 25.922 5.1395 28.0205C6.2793 30.1191 7.85061 31.9525 9.75001 33.4C10.9688 34.3474 12.3154 35.1175 13.75 35.6875C15.7612 36.5118 17.9139 36.9363 20.0875 36.9375C24.5742 36.9276 28.874 35.1391 32.0444 31.9641C35.2146 28.7891 36.9967 24.4868 37 20C37.0032 17.6856 36.5266 15.3958 35.6 13.275ZM20.075 6.48749C22.027 6.48729 23.9554 6.91392 25.725 7.73749C25.2935 7.92395 24.8397 8.05419 24.375 8.125C22.8457 8.34636 21.4291 9.05634 20.3365 10.149C19.2439 11.2416 18.5339 12.6583 18.3125 14.1875C18.2154 15.0451 17.8252 15.843 17.2081 16.4465C16.591 17.05 15.7846 17.422 14.925 17.5C13.3957 17.7214 11.9791 18.4314 10.8865 19.524C9.79386 20.6166 9.08387 22.0333 8.86251 23.5625C8.78756 24.378 8.43962 25.1444 7.87501 25.7375C6.90082 23.6791 6.4632 21.4076 6.60285 19.1346C6.7425 16.8616 7.45488 14.6609 8.67372 12.7371C9.89255 10.8135 11.5782 9.22939 13.5739 8.1323C15.5695 7.03521 17.8102 6.4608 20.0875 6.46249L20.075 6.48749ZM9.73751 28.75C9.88751 28.6125 10.0375 28.4875 10.1875 28.3375C11.2996 27.2594 12.0134 25.8361 12.2125 24.3C12.2932 23.4365 12.6787 22.63 13.3 22.025C13.8979 21.4028 14.7025 21.0204 15.5625 20.95C17.0917 20.7286 18.5084 20.0186 19.601 18.926C20.6936 17.8334 21.4036 16.4168 21.625 14.8875C21.6791 13.9844 22.0666 13.1335 22.7125 12.5C23.3251 11.8898 24.1374 11.5214 25 11.4625C26.4049 11.2692 27.7151 10.6446 28.75 9.675C29.9284 10.6526 30.9266 11.8286 31.7 13.15C31.6525 13.2141 31.598 13.2729 31.5375 13.325C30.9409 13.9528 30.1372 14.3435 29.275 14.425C27.7441 14.6425 26.3254 15.3513 25.232 16.4445C24.1387 17.5379 23.43 18.9566 23.2125 20.4875C23.1244 21.348 22.7415 22.1516 22.1287 22.7621C21.5159 23.3728 20.7109 23.7526 19.85 23.8375C18.3162 24.0571 16.8944 24.7658 15.7954 25.8579C14.6965 26.9501 13.9791 28.3676 13.75 29.9C13.6827 30.5109 13.4729 31.0975 13.1375 31.6125C11.855 30.851 10.7064 29.884 9.73751 28.75ZM20.075 33.575C18.8066 33.5764 17.5442 33.3996 16.325 33.05C16.7421 32.2725 17.0132 31.4251 17.125 30.55C17.2126 29.6914 17.5937 28.8893 18.204 28.279C18.8142 27.6688 19.6164 27.2876 20.475 27.2C22.0065 26.9811 23.426 26.2723 24.5211 25.1794C25.6161 24.0866 26.328 22.6685 26.55 21.1375C26.6376 20.2789 27.0187 19.4768 27.629 18.8665C28.2392 18.2563 29.0414 17.8751 29.9 17.7875C31.0525 17.6376 32.151 17.2085 33.1 16.5375C33.627 18.5349 33.6894 20.6264 33.2825 22.6516C32.8756 24.6769 32.0101 26.5821 30.7526 28.221C29.4951 29.8598 27.879 31.1889 26.028 32.1061C24.1771 33.0234 22.1407 33.5045 20.075 33.5125V33.575Z" fill="#103040"/>
</g>
</svg>
