<svg width="150" height="36" viewBox="0 0 150 36" fill="none" xmlns="http://www.w3.org/2000/svg">
<g id="Logo 2" opacity="0.5" clip-path="url(#clip0_12_1152)">
<path id="Vector" d="M45.2448 25.7472H55.7907V22.5862H48.9931V10.6799H45.2448V25.7472Z" fill="#103040"/>
<path id="Vector_2" d="M62.0388 23.6399C60.5352 23.6399 59.7517 22.3334 59.7517 20.3735C59.7517 18.4137 60.5352 17.0861 62.0388 17.0861C63.5423 17.0861 64.347 18.4137 64.347 20.3735C64.347 22.3334 63.5423 23.6399 62.0388 23.6399ZM62.06 26.0844C65.5541 26.0844 67.8411 23.6188 67.8411 20.3735C67.8411 17.1283 65.5541 14.6627 62.06 14.6627C58.587 14.6627 56.2576 17.1283 56.2576 20.3735C56.2576 23.6188 58.587 26.0844 62.06 26.0844Z" fill="#103040"/>
<path id="Vector_3" d="M73.8891 29.4771C75.4985 29.4771 76.9174 29.1189 77.8703 28.276C78.7385 27.4963 79.3103 26.3162 79.3103 24.6935V14.9577H76.0068V16.1168H75.9644C75.3291 15.2106 74.355 14.6416 72.915 14.6416C70.2256 14.6416 68.3621 16.8754 68.3621 20.0364C68.3621 23.3449 70.6279 25.1571 73.0632 25.1571C74.3762 25.1571 75.2021 24.6303 75.8374 23.9138H75.9221V24.9886C75.9221 26.2951 75.3079 27.0537 73.8468 27.0537C72.7032 27.0537 72.1315 26.569 71.9409 26.0001H68.595C68.9338 28.2549 70.9032 29.4771 73.8891 29.4771ZM73.8679 22.6073C72.5762 22.6073 71.7291 21.5536 71.7291 19.931C71.7291 18.2873 72.5762 17.2336 73.8679 17.2336C75.3079 17.2336 76.0703 18.4559 76.0703 19.9099C76.0703 21.4272 75.3715 22.6073 73.8679 22.6073Z" fill="#103040"/>
<path id="Vector_4" d="M86.103 23.6399C84.5995 23.6399 83.816 22.3334 83.816 20.3735C83.816 18.4137 84.5995 17.0861 86.103 17.0861C87.6065 17.0861 88.4109 18.4137 88.4109 20.3735C88.4109 22.3334 87.6065 23.6399 86.103 23.6399ZM86.1242 26.0844C89.618 26.0844 91.905 23.6188 91.905 20.3735C91.905 17.1283 89.618 14.6627 86.1242 14.6627C82.6512 14.6627 80.3218 17.1283 80.3218 20.3735C80.3218 23.6188 82.6512 26.0844 86.1242 26.0844Z" fill="#103040"/>
<path id="Vector_5" d="M92.9135 25.7472H96.3653V14.9577H92.9135V25.7472ZM92.9135 13.4615H96.3653V10.6799H92.9135V13.4615Z" fill="#103040"/>
<path id="Vector_6" d="M97.8626 29.3086H101.314V24.6303H101.357C102.034 25.5365 103.03 26.0844 104.427 26.0844C107.265 26.0844 109.15 23.8506 109.15 20.3525C109.15 17.1072 107.392 14.6416 104.512 14.6416C103.03 14.6416 101.971 15.2949 101.23 16.2643H101.166V14.9577H97.8626V29.3086ZM103.538 23.4291C102.056 23.4291 101.209 22.228 101.209 20.4789C101.209 18.7298 101.971 17.4022 103.474 17.4022C104.957 17.4022 105.656 18.6245 105.656 20.4789C105.656 22.3123 104.851 23.4291 103.538 23.4291Z" fill="#103040"/>
<path id="Vector_7" d="M114.769 26.0844C117.607 26.0844 119.704 24.8621 119.704 22.5019C119.704 19.7413 117.459 19.2567 115.553 18.9406C114.176 18.6877 112.948 18.5823 112.948 17.8237C112.948 17.1493 113.605 16.8332 114.452 16.8332C115.405 16.8332 116.061 17.1283 116.188 18.0976H119.365C119.195 15.9692 117.544 14.6416 114.473 14.6416C111.911 14.6416 109.793 15.8217 109.793 18.0976C109.793 20.6264 111.805 21.1322 113.689 21.4483C115.129 21.7011 116.442 21.8065 116.442 22.7759C116.442 23.4713 115.786 23.8506 114.748 23.8506C113.605 23.8506 112.885 23.3238 112.758 22.249H109.496C109.602 24.6303 111.593 26.0844 114.769 26.0844Z" fill="#103040"/>
<path id="Vector_8" d="M124.392 26.0633C125.896 26.0633 126.849 25.4732 127.632 24.4196H127.696V25.7472H130.999V14.9577H127.548V20.9847C127.548 22.2701 126.828 23.1552 125.642 23.1552C124.541 23.1552 124.011 22.5019 124.011 21.3218V14.9577H120.581V22.0383C120.581 24.4407 121.894 26.0633 124.392 26.0633Z" fill="#103040"/>
<path id="Vector_9" d="M132.501 25.7472H135.953V19.6992C135.953 18.4137 136.588 17.5076 137.668 17.5076C138.706 17.5076 139.193 18.1819 139.193 19.341V25.7472H142.645V19.6992C142.645 18.4137 143.259 17.5076 144.36 17.5076C145.398 17.5076 145.885 18.1819 145.885 19.341V25.7472H149.336V18.7298C149.336 16.3064 148.108 14.6416 145.652 14.6416C144.254 14.6416 143.089 15.2317 142.242 16.5382H142.2C141.649 15.3792 140.569 14.6416 139.151 14.6416C137.584 14.6416 136.546 15.3792 135.868 16.4961H135.805V14.9577H132.501V25.7472Z" fill="#103040"/>
<path id="Vector_10" fill-rule="evenodd" clip-rule="evenodd" d="M17.7365 35.4057C27.4828 35.4057 35.3836 27.5434 35.3836 17.8448C35.3836 8.14614 27.4828 0.283829 17.7365 0.283829C7.99035 0.283829 0.0895081 8.14614 0.0895081 17.8448C0.0895081 27.5434 7.99035 35.4057 17.7365 35.4057ZM20.4604 13.8519C21.9646 12.3549 21.9646 9.92793 20.4604 8.43094C18.956 6.93398 16.5171 6.93398 15.0128 8.43094C13.5086 9.92793 13.5086 12.3549 15.0128 13.8519L17.7365 16.5624L20.4604 13.8519ZM21.749 20.5553C23.2534 22.0523 25.6923 22.0523 27.1966 20.5553C28.7008 19.0583 28.7008 16.6313 27.1966 15.1343C25.6923 13.6374 23.2534 13.6374 21.749 15.1343L19.0253 17.8449L21.749 20.5553ZM20.4604 27.2587C21.9646 25.7617 21.9646 23.3347 20.4604 21.8377L17.7365 19.1272L15.0128 21.8377C13.5086 23.3347 13.5086 25.7617 15.0128 27.2587C16.5171 28.7557 18.956 28.7557 20.4604 27.2587ZM8.27653 20.5553C6.77226 19.0583 6.77226 16.6313 8.27653 15.1343C9.78088 13.6374 12.2198 13.6374 13.7241 15.1343L16.4479 17.8449L13.7241 20.5553C12.2198 22.0523 9.78088 22.0523 8.27653 20.5553Z" fill="#103040"/>
</g>
<defs>
<clipPath id="clip0_12_1152">
<rect width="150" height="36" fill="white"/>
</clipPath>
</defs>
</svg>
