<svg width="151" height="36" viewBox="0 0 151 36" fill="none" xmlns="http://www.w3.org/2000/svg">
<g id="Logo 6" opacity="0.5" clip-path="url(#clip0_12_1163)">
<path id="Vector" d="M46.064 24.7065H56.6802V21.5456H49.8372V9.63922H46.064V24.7065Z" fill="#103040"/>
<path id="Vector_2" d="M62.9699 22.5992C61.4563 22.5992 60.6676 21.2927 60.6676 19.3329C60.6676 17.3731 61.4563 16.0455 62.9699 16.0455C64.4834 16.0455 65.2935 17.3731 65.2935 19.3329C65.2935 21.2927 64.4834 22.5992 62.9699 22.5992ZM62.9912 25.0437C66.5086 25.0437 68.8109 22.5782 68.8109 19.3329C68.8109 16.0876 66.5086 13.6221 62.9912 13.6221C59.4951 13.6221 57.1501 16.0876 57.1501 19.3329C57.1501 22.5782 59.4951 25.0437 62.9912 25.0437Z" fill="#103040"/>
<path id="Vector_3" d="M74.8993 28.4365C76.5194 28.4365 77.9477 28.0782 78.907 27.2353C79.781 26.4556 80.3566 25.2755 80.3566 23.6529V13.9171H77.0311V15.0761H76.9884C76.3489 14.17 75.3683 13.601 73.9187 13.601C71.2113 13.601 69.3354 15.8347 69.3354 18.9957C69.3354 22.3042 71.6164 24.1165 74.0679 24.1165C75.3896 24.1165 76.221 23.5897 76.8605 22.8732H76.9458V23.9479C76.9458 25.2544 76.3276 26.0131 74.8567 26.0131C73.7055 26.0131 73.1299 25.5284 72.9381 24.9594H69.5699C69.911 27.2143 71.8935 28.4365 74.8993 28.4365ZM74.878 21.5666C73.5776 21.5666 72.7249 20.513 72.7249 18.8903C72.7249 17.2466 73.5776 16.193 74.878 16.193C76.3276 16.193 77.095 17.4152 77.095 18.8693C77.095 20.3865 76.3915 21.5666 74.878 21.5666Z" fill="#103040"/>
<path id="Vector_4" d="M87.1945 22.5992C85.6809 22.5992 84.8922 21.2927 84.8922 19.3329C84.8922 17.3731 85.6809 16.0455 87.1945 16.0455C88.708 16.0455 89.5181 17.3731 89.5181 19.3329C89.5181 21.2927 88.708 22.5992 87.1945 22.5992ZM87.2158 25.0437C90.7332 25.0437 93.0355 22.5782 93.0355 19.3329C93.0355 16.0876 90.7332 13.6221 87.2158 13.6221C83.7197 13.6221 81.3748 16.0876 81.3748 19.3329C81.3748 22.5782 83.7197 25.0437 87.2158 25.0437Z" fill="#103040"/>
<path id="Vector_5" d="M94.0499 24.7065H97.5247V13.9171H94.0499V24.7065ZM94.0499 12.4209H97.5247V9.63922H94.0499V12.4209Z" fill="#103040"/>
<path id="Vector_6" d="M99.0329 28.2679H102.508V23.5897H102.55C103.232 24.4958 104.234 25.0437 105.641 25.0437C108.498 25.0437 110.395 22.81 110.395 19.3118C110.395 16.0665 108.626 13.601 105.727 13.601C104.234 13.601 103.169 14.2543 102.422 15.2236H102.358V13.9171H99.0329V28.2679ZM104.746 22.3885C103.254 22.3885 102.401 21.1873 102.401 19.4383C102.401 17.6892 103.169 16.3616 104.682 16.3616C106.174 16.3616 106.878 17.5838 106.878 19.4383C106.878 21.2716 106.068 22.3885 104.746 22.3885Z" fill="#103040"/>
<path id="Vector_7" d="M116.052 25.0437C118.909 25.0437 121.019 23.8215 121.019 21.4613C121.019 18.7007 118.76 18.216 116.841 17.8999C115.455 17.647 114.219 17.5417 114.219 16.783C114.219 16.1087 114.88 15.7926 115.733 15.7926C116.692 15.7926 117.353 16.0876 117.481 17.057H120.678C120.508 14.9286 118.845 13.601 115.754 13.601C113.174 13.601 111.043 14.7811 111.043 17.057C111.043 19.5858 113.068 20.0915 114.965 20.4076C116.415 20.6605 117.736 20.7659 117.736 21.7352C117.736 22.4306 117.076 22.81 116.031 22.81C114.88 22.81 114.155 22.2831 114.027 21.2084H110.744C110.851 23.5897 112.855 25.0437 116.052 25.0437Z" fill="#103040"/>
<path id="Vector_8" d="M125.739 25.0226C127.253 25.0226 128.212 24.4326 129.001 23.3789H129.065V24.7065H132.391V13.9171H128.916V19.944C128.916 21.2295 128.191 22.1145 126.997 22.1145C125.889 22.1145 125.356 21.4613 125.356 20.2812V13.9171H121.902V20.9977C121.902 23.4 123.224 25.0226 125.739 25.0226Z" fill="#103040"/>
<path id="Vector_9" d="M133.901 24.7065H137.376V18.6585C137.376 17.3731 138.016 16.4669 139.103 16.4669C140.148 16.4669 140.638 17.1413 140.638 18.3003V24.7065H144.113V18.6585C144.113 17.3731 144.731 16.4669 145.839 16.4669C146.884 16.4669 147.374 17.1413 147.374 18.3003V24.7065H150.849V17.6892C150.849 15.2658 149.613 13.601 147.14 13.601C145.733 13.601 144.56 14.191 143.708 15.4976H143.665C143.111 14.3385 142.024 13.601 140.595 13.601C139.018 13.601 137.973 14.3385 137.291 15.4554H137.227V13.9171H133.901V24.7065Z" fill="#103040"/>
<path id="Vector_10" fill-rule="evenodd" clip-rule="evenodd" d="M18.3724 35.2431C28.1835 35.2431 36.1371 27.3808 36.1371 17.6821C36.1371 7.98352 28.1835 0.121201 18.3724 0.121201C8.56115 0.121201 0.607635 7.98352 0.607635 17.6821C0.607635 27.3808 8.56115 35.2431 18.3724 35.2431ZM23.9143 8.30184C24.1841 7.35461 23.2542 6.79448 22.4049 7.39258L10.5498 15.7413C9.62875 16.3899 9.77362 17.6821 10.7674 17.6821H13.8892V17.6583H19.9734L15.0159 19.3874L12.8304 27.0625C12.5606 28.0098 13.4904 28.5699 14.3398 27.9717L26.195 19.6231C27.116 18.9745 26.971 17.6821 25.9773 17.6821H21.2432L23.9143 8.30184Z" fill="#103040"/>
</g>
<defs>
<clipPath id="clip0_12_1163">
<rect width="151" height="36" fill="white"/>
</clipPath>
</defs>
</svg>
