<svg width="170" height="30" viewBox="0 0 170 30" fill="none" xmlns="http://www.w3.org/2000/svg">
<g id="Logo 4" opacity="0.5" clip-path="url(#clip0_12_1139)">
<path id="Vector" d="M25.5581 22.9939H34.3838L12.5206 0.987686H3.69476L25.5581 22.9939Z" fill="#103040"/>
<path id="Vector_2" d="M17.0549 0.987687L38.1307 22.2012V0.987686H32.4272V7.6852L25.7731 0.987686L17.0549 0.987687Z" fill="#103040"/>
<path id="Vector_3" d="M0 1.72438V22.9938H5.70347V16.2962L12.3575 22.9938H21.1313L0 1.72438Z" fill="#103040"/>
<path id="Vector_4" d="M51.8939 19.6849H57.0042V22.716H47.9928V6.59604H51.8939V19.6849Z" fill="#103040"/>
<path id="Vector_5" d="M63.9753 22.8998C62.7281 22.8998 61.6026 22.6319 60.5988 22.096C59.6102 21.5602 58.827 20.7948 58.249 19.7998C57.6863 18.8047 57.4049 17.6412 57.4049 16.3093C57.4049 14.9929 57.6938 13.837 58.2718 12.842C58.8498 11.8316 59.6406 11.0585 60.6444 10.5227C61.6483 9.98691 62.7737 9.71901 64.0209 9.71901C65.2681 9.71901 66.3935 9.98691 67.3974 10.5227C68.4012 11.0585 69.192 11.8316 69.77 12.842C70.348 13.837 70.6369 14.9929 70.6369 16.3093C70.6369 17.6259 70.3404 18.7893 69.7471 19.7998C69.1692 20.7948 68.3707 21.5602 67.3517 22.096C66.3479 22.6319 65.2224 22.8998 63.9753 22.8998ZM63.9753 19.5012C64.7205 19.5012 65.3517 19.2257 65.8688 18.6746C66.4011 18.1234 66.6673 17.3351 66.6673 16.3093C66.6673 15.2837 66.4087 14.4953 65.8917 13.9442C65.3897 13.3931 64.7661 13.1176 64.0209 13.1176C63.2604 13.1176 62.6292 13.3931 62.1274 13.9442C61.6254 14.48 61.3745 15.2684 61.3745 16.3093C61.3745 17.3351 61.6178 18.1234 62.1045 18.6746C62.6065 19.2257 63.2301 19.5012 63.9753 19.5012Z" fill="#103040"/>
<path id="Vector_6" d="M76.8587 9.71901C77.756 9.71901 78.5393 9.90271 79.2085 10.2701C79.8929 10.6375 80.4176 11.1198 80.7827 11.7168V9.90271H84.6838V22.6931C84.6838 23.8719 84.448 24.9358 83.9766 25.8849C83.5203 26.8493 82.8131 27.6148 81.8549 28.1812C80.9119 28.7477 79.7332 29.0309 78.3188 29.0309C76.4328 29.0309 74.9043 28.5792 73.7332 27.676C72.5621 26.7881 71.8929 25.5788 71.7255 24.0479H75.5811C75.7028 24.5378 75.9918 24.9204 76.448 25.196C76.9044 25.4869 77.467 25.6323 78.1363 25.6323C78.9424 25.6323 79.5811 25.3951 80.0527 24.9204C80.5393 24.4612 80.7827 23.7188 80.7827 22.6931V20.879C80.4024 21.476 79.8777 21.9659 79.2085 22.3487C78.5393 22.716 77.756 22.8998 76.8587 22.8998C75.8093 22.8998 74.8586 22.6319 74.007 22.096C73.1552 21.5449 72.4784 20.7719 71.9766 19.7768C71.4899 18.7664 71.2464 17.603 71.2464 16.2864C71.2464 14.9699 71.4899 13.8141 71.9766 12.819C72.4784 11.824 73.1552 11.0585 74.007 10.5227C74.8586 9.98691 75.8093 9.71901 76.8587 9.71901ZM80.7827 16.3093C80.7827 15.3297 80.5089 14.5566 79.9614 13.9901C79.4291 13.4237 78.775 13.1404 77.9994 13.1404C77.2237 13.1404 76.5621 13.4237 76.0146 13.9901C75.4822 14.5412 75.2161 15.3067 75.2161 16.2864C75.2161 17.2662 75.4822 18.0469 76.0146 18.6287C76.5621 19.1951 77.2237 19.4782 77.9994 19.4782C78.775 19.4782 79.4291 19.1951 79.9614 18.6287C80.5089 18.0622 80.7827 17.2891 80.7827 16.3093Z" fill="#103040"/>
<path id="Vector_7" d="M92.6164 22.8998C91.3693 22.8998 90.2438 22.6319 89.24 22.096C88.2514 21.5602 87.4681 20.7948 86.8902 19.7998C86.3274 18.8047 86.0461 17.6412 86.0461 16.3093C86.0461 14.9929 86.3351 13.837 86.9129 12.842C87.4909 11.8316 88.2818 11.0585 89.2857 10.5227C90.2894 9.98691 91.415 9.71901 92.662 9.71901C93.9092 9.71901 95.0348 9.98691 96.0385 10.5227C97.0423 11.0585 97.8332 11.8316 98.4111 12.842C98.9891 13.837 99.2781 14.9929 99.2781 16.3093C99.2781 17.6259 98.9815 18.7893 98.3884 19.7998C97.8104 20.7948 97.0119 21.5602 95.9929 22.096C94.989 22.6319 93.8636 22.8998 92.6164 22.8998ZM92.6164 19.5012C93.3617 19.5012 93.9929 19.2257 94.51 18.6746C95.0424 18.1234 95.3085 17.3351 95.3085 16.3093C95.3085 15.2837 95.05 14.4953 94.5328 13.9442C94.0309 13.3931 93.4074 13.1176 92.662 13.1176C91.9017 13.1176 91.2705 13.3931 90.7685 13.9442C90.2666 14.48 90.0157 15.2684 90.0157 16.3093C90.0157 17.3351 90.2591 18.1234 90.7457 18.6746C91.2476 19.2257 91.8712 19.5012 92.6164 19.5012Z" fill="#103040"/>
<path id="Vector_8" d="M102.625 8.57086C101.941 8.57086 101.378 8.37184 100.937 7.97382C100.511 7.56049 100.298 7.05531 100.298 6.45826C100.298 5.84592 100.511 5.34073 100.937 4.94271C101.378 4.52937 101.941 4.32271 102.625 4.32271C103.295 4.32271 103.842 4.52937 104.268 4.94271C104.709 5.34073 104.93 5.84592 104.93 6.45826C104.93 7.05531 104.709 7.56049 104.268 7.97382C103.842 8.37184 103.295 8.57086 102.625 8.57086ZM104.564 9.90271V22.716H100.663V9.90271H104.564Z" fill="#103040"/>
<path id="Vector_9" d="M110.608 11.7168C110.989 11.1198 111.513 10.6375 112.182 10.2701C112.851 9.90271 113.635 9.71901 114.533 9.71901C115.582 9.71901 116.533 9.98691 117.384 10.5227C118.236 11.0585 118.905 11.824 119.392 12.819C119.894 13.8141 120.145 14.9699 120.145 16.2864C120.145 17.603 119.894 18.7664 119.392 19.7768C118.905 20.7719 118.236 21.5449 117.384 22.096C116.533 22.6319 115.582 22.8998 114.533 22.8998C113.651 22.8998 112.867 22.716 112.182 22.3487C111.513 21.9812 110.989 21.5067 110.608 20.9249V28.8242H106.707V9.90271H110.608V11.7168ZM116.175 16.2864C116.175 15.3067 115.901 14.5412 115.354 13.9901C114.822 13.4237 114.159 13.1404 113.369 13.1404C112.593 13.1404 111.932 13.4237 111.384 13.9901C110.852 14.5566 110.586 15.3297 110.586 16.3093C110.586 17.2891 110.852 18.0622 111.384 18.6287C111.932 19.1951 112.593 19.4782 113.369 19.4782C114.145 19.4782 114.806 19.1951 115.354 18.6287C115.901 18.0469 116.175 17.2662 116.175 16.2864Z" fill="#103040"/>
<path id="Vector_10" d="M126.685 22.8998C125.575 22.8998 124.587 22.7084 123.72 22.3257C122.853 21.943 122.168 21.4224 121.667 20.7642C121.165 20.0907 120.883 19.3404 120.823 18.5138H124.678C124.724 18.9578 124.929 19.3176 125.294 19.5931C125.659 19.8687 126.108 20.0064 126.64 20.0064C127.127 20.0064 127.499 19.9146 127.758 19.7309C128.032 19.5319 128.169 19.2792 128.169 18.9731C128.169 18.6057 127.978 18.3378 127.598 18.1693C127.217 17.9857 126.601 17.7867 125.75 17.5723C124.837 17.358 124.077 17.136 123.469 16.9064C122.86 16.6614 122.336 16.2864 121.894 15.7812C121.454 15.2608 121.233 14.5642 121.233 13.6916C121.233 12.9568 121.431 12.2909 121.826 11.6938C122.237 11.0815 122.831 10.5993 123.605 10.2472C124.397 9.89505 125.332 9.71901 126.412 9.71901C128.009 9.71901 129.264 10.117 130.176 10.9131C131.104 11.7091 131.636 12.7654 131.773 14.082H128.169C128.107 13.638 127.91 13.2859 127.575 13.0257C127.256 12.7654 126.83 12.6353 126.298 12.6353C125.842 12.6353 125.492 12.7271 125.248 12.9109C125.005 13.0792 124.884 13.3166 124.884 13.6227C124.884 13.9901 125.074 14.2657 125.453 14.4493C125.849 14.6331 126.458 14.8168 127.279 15.0004C128.222 15.2454 128.99 15.4903 129.583 15.7353C130.176 15.9649 130.694 16.3477 131.134 16.8834C131.591 17.404 131.826 18.1081 131.842 18.996C131.842 19.7462 131.629 20.4198 131.202 21.0168C130.792 21.5986 130.191 22.0578 129.401 22.3946C128.625 22.7313 127.72 22.8998 126.685 22.8998Z" fill="#103040"/>
<path id="Vector_11" d="M146.114 9.90271V22.716H142.213V20.9709C141.818 21.5373 141.278 21.9966 140.593 22.3487C139.924 22.6854 139.179 22.8538 138.358 22.8538C137.384 22.8538 136.524 22.6396 135.779 22.2109C135.034 21.7669 134.457 21.1316 134.046 20.3049C133.635 19.4782 133.43 18.5062 133.43 17.3887V9.90271H137.308V16.8604C137.308 17.7178 137.529 18.3837 137.969 18.8582C138.411 19.3329 139.004 19.5701 139.749 19.5701C140.509 19.5701 141.11 19.3329 141.551 18.8582C141.993 18.3837 142.213 17.7178 142.213 16.8604V9.90271H146.114Z" fill="#103040"/>
<path id="Vector_12" d="M164.475 9.76494C166.057 9.76494 167.312 10.2472 168.239 11.2116C169.183 12.176 169.654 13.5156 169.654 15.2301V22.716H165.775V15.7582C165.775 14.9316 165.556 14.2963 165.114 13.8523C164.688 13.3931 164.095 13.1635 163.335 13.1635C162.574 13.1635 161.974 13.3931 161.532 13.8523C161.107 14.2963 160.894 14.9316 160.894 15.7582V22.716H157.015V15.7582C157.015 14.9316 156.795 14.2963 156.354 13.8523C155.928 13.3931 155.335 13.1635 154.574 13.1635C153.814 13.1635 153.213 13.3931 152.772 13.8523C152.347 14.2963 152.133 14.9316 152.133 15.7582V22.716H148.232V9.90272H152.133V11.5101C152.529 10.9743 153.045 10.5533 153.684 10.2472C154.324 9.92568 155.046 9.76494 155.851 9.76494C156.81 9.76494 157.662 9.97161 158.407 10.3849C159.167 10.7983 159.76 11.3877 160.186 12.1531C160.628 11.4489 161.228 10.8748 161.989 10.4309C162.75 9.98692 163.579 9.76494 164.475 9.76494Z" fill="#103040"/>
</g>
<defs>
<clipPath id="clip0_12_1139">
<rect width="170" height="30" fill="white"/>
</clipPath>
</defs>
</svg>
