<svg width="158" height="40" viewBox="0 0 158 40" fill="none" xmlns="http://www.w3.org/2000/svg">
<g id="Logo 3" opacity="0.5">
<path id="Vector" d="M18.2172 7.82352V2.82352H2.41716V37.1765H18.2172V32.1765C14.9805 32.1765 11.8764 30.8935 9.58781 28.61C7.29917 26.3265 6.01343 23.2294 6.01343 20C6.01343 16.7706 7.29917 13.6734 9.58781 11.3899C11.8764 9.1064 14.9805 7.82352 18.2172 7.82352Z" fill="#28AD88"/>
<path id="Vector_2" d="M18.2172 7.82352V32.1765C21.4538 32.1765 24.5579 30.8935 26.8466 28.61C29.1352 26.3265 30.4209 23.2294 30.4209 20C30.4209 16.7706 29.1352 13.6734 26.8466 11.3899C24.5579 9.1064 21.4538 7.82352 18.2172 7.82352Z" fill="#28AD88"/>
<path id="Vector_3" d="M39.2878 10.8824H42.8251V27.8824H39.2878V10.8824Z" fill="#28AD88"/>
<path id="Vector_4" d="M44.806 22.0588C44.806 20.8358 45.17 19.6402 45.8517 18.6238C46.5335 17.6073 47.5023 16.8156 48.6356 16.3492C49.7688 15.8828 51.0153 15.7626 52.217 16.0038C53.4187 16.2449 54.5217 16.8367 55.386 17.704C56.2502 18.5714 56.8371 19.6752 57.072 20.8756C57.3067 22.0761 57.1791 23.3191 56.7051 24.4471C56.2311 25.5749 55.4323 26.5372 54.4097 27.2115C53.387 27.886 52.1867 28.2422 50.9609 28.2353C50.1479 28.2416 49.3418 28.086 48.5898 27.7773C47.8379 27.4687 47.1552 27.0134 46.5819 26.4382C46.0087 25.8629 45.5564 25.1792 45.2513 24.4272C44.9464 23.6752 44.795 22.87 44.806 22.0588ZM53.6728 22.0588C53.6589 21.5315 53.4895 21.02 53.1858 20.5883C52.882 20.1566 52.4575 19.8238 51.9651 19.6315C51.4729 19.4393 50.9347 19.3961 50.418 19.5075C49.9012 19.6188 49.4289 19.8796 49.0599 20.2575C48.691 20.6353 48.4419 21.1132 48.3438 21.6315C48.2457 22.1499 48.3028 22.6855 48.5082 23.1715C48.7136 23.6575 49.0581 24.0725 49.4986 24.3641C49.939 24.6559 50.4558 24.8115 50.9845 24.8118C51.3445 24.8188 51.702 24.7516 52.0347 24.6145C52.3675 24.4774 52.6682 24.2733 52.9183 24.0149C53.1684 23.7566 53.3624 23.4494 53.4882 23.1129C53.614 22.7763 53.6688 22.4175 53.6493 22.0588H53.6728Z" fill="#28AD88"/>
<path id="Vector_5" d="M71.1118 16.2353V27.3059C71.1118 31.2118 68.0461 32.8706 64.9451 32.8706C63.8512 32.9601 62.7541 32.7433 61.7772 32.2445C60.8002 31.7456 59.9821 30.9846 59.4151 30.0471L62.3982 28.3294C62.6399 28.8158 63.0244 29.2169 63.5006 29.4796C63.9767 29.7423 64.5217 29.8541 65.063 29.8C65.4079 29.8423 65.7578 29.8082 66.0879 29.7C66.418 29.5916 66.72 29.412 66.9723 29.1736C67.2248 28.9353 67.4212 28.6443 67.5477 28.3214C67.6742 27.9986 67.7276 27.6518 67.7042 27.3059V26.2353C67.2926 26.7333 66.7702 27.1286 66.1788 27.39C65.5872 27.6514 64.9428 27.7716 64.2966 27.7412C62.733 27.7412 61.2335 27.1214 60.1278 26.0182C59.0222 24.9152 58.401 23.4189 58.401 21.8588C58.401 20.2987 59.0222 18.8026 60.1278 17.6994C61.2335 16.5962 62.733 15.9765 64.2966 15.9765C64.9428 15.946 65.5872 16.0662 66.1788 16.3276C66.7702 16.5891 67.2926 16.9843 67.7042 17.4823V16.3059L71.1118 16.2353ZM67.7042 21.8235C67.7276 21.2607 67.5819 20.7036 67.2856 20.2241C66.9893 19.7446 66.5561 19.3645 66.0414 19.1326C65.5268 18.9007 64.9546 18.8278 64.3981 18.9231C63.8417 19.0183 63.3264 19.2775 62.9188 19.6673C62.5112 20.057 62.2297 20.5596 62.1106 21.1103C61.9915 21.6611 62.0402 22.2346 62.2505 22.7574C62.4608 23.2802 62.823 23.7283 63.2906 24.0441C63.7582 24.3599 64.3098 24.5289 64.8743 24.5294C65.2428 24.5559 65.6127 24.5049 65.9601 24.38C66.3075 24.2549 66.6249 24.0586 66.8915 23.8035C67.1583 23.5486 67.3684 23.2406 67.5083 22.8995C67.6483 22.5585 67.715 22.1919 67.7042 21.8235Z" fill="#28AD88"/>
<path id="Vector_6" d="M73.1045 22.0588C73.1045 20.8367 73.4679 19.6421 74.1486 18.6261C74.8293 17.6101 75.7967 16.8185 76.9285 16.3514C78.0604 15.8842 79.3056 15.7626 80.5068 16.0019C81.7079 16.2412 82.8109 16.8306 83.6762 17.6955C84.5414 18.5606 85.13 19.6622 85.3675 20.8611C85.6051 22.06 85.4808 23.3022 85.0105 24.4306C84.5401 25.5591 83.7448 26.5228 82.7254 27.2001C81.7058 27.8774 80.5078 28.2376 79.283 28.2353C78.4685 28.2432 77.6604 28.0887 76.9065 27.7809C76.1526 27.4732 75.4678 27.0183 74.8924 26.4431C74.3168 25.8678 73.8623 25.1836 73.5552 24.4308C73.2483 23.678 73.095 22.8715 73.1045 22.0588ZM81.9713 22.0588C81.9574 21.5311 81.7876 21.0191 81.4834 20.5871C81.1792 20.1552 80.7539 19.8223 80.2609 19.6305C79.7679 19.4386 79.2292 19.3961 78.7122 19.5085C78.1951 19.6207 77.7228 19.8828 77.3543 20.2618C76.9859 20.6407 76.7376 21.1198 76.641 21.6388C76.5442 22.1579 76.603 22.6939 76.8102 23.1796C77.0173 23.6655 77.3636 24.0795 77.8057 24.3699C78.2476 24.6601 78.7656 24.8139 79.2948 24.8118C79.6548 24.8188 80.0123 24.7516 80.345 24.6145C80.6777 24.4774 80.9785 24.2733 81.2286 24.0149C81.4787 23.7566 81.6727 23.4494 81.7985 23.1129C81.9243 22.7763 81.9791 22.4175 81.9596 22.0588H81.9713Z" fill="#28AD88"/>
<path id="Vector_7" d="M87.1004 13.1176C87.1004 12.7035 87.2235 12.2986 87.4542 11.9542C87.6848 11.6098 88.0126 11.3414 88.396 11.1829C88.7796 11.0244 89.2016 10.983 89.6088 11.0638C90.0158 11.1446 90.3898 11.344 90.6834 11.6369C90.9769 11.9298 91.1767 12.3029 91.2577 12.7091C91.3387 13.1153 91.2971 13.5364 91.1383 13.9191C90.9795 14.3016 90.7104 14.6287 90.3653 14.8588C90.0201 15.0889 89.6144 15.2118 89.1993 15.2118C88.6445 15.2056 88.1142 14.9831 87.722 14.5916C87.3297 14.2002 87.1066 13.6712 87.1004 13.1176ZM87.4424 16.2353H90.9797V27.8824H87.4424V16.2353Z" fill="#28AD88"/>
<path id="Vector_8" d="M106.119 22.0588C106.159 22.8334 106.045 23.6082 105.783 24.3386C105.522 25.0689 105.118 25.7405 104.595 26.3145C104.072 26.8886 103.441 27.3538 102.737 27.6834C102.034 28.0131 101.272 28.2006 100.495 28.2353C99.8361 28.2791 99.1757 28.1738 98.5632 27.9273C97.9507 27.6807 97.4019 27.2994 96.9578 26.8118V32.5647H93.4204V16.2353H96.9578V17.3294C97.4025 16.8432 97.9517 16.4636 98.5643 16.2192C99.1768 15.9746 99.8369 15.8715 100.495 15.9176C101.269 15.9523 102.028 16.1388 102.729 16.4662C103.43 16.7936 104.06 17.2558 104.582 17.826C105.104 18.3962 105.509 19.0635 105.773 19.7899C106.036 20.5161 106.154 21.2871 106.119 22.0588ZM102.582 22.0588C102.568 21.5123 102.393 20.9822 102.078 20.5348C101.764 20.0874 101.324 19.7425 100.813 19.5435C100.303 19.3445 99.7455 19.3002 99.2101 19.4161C98.6748 19.532 98.1857 19.8031 97.804 20.1952C97.4223 20.5873 97.1652 21.0831 97.0648 21.6205C96.9644 22.1578 97.0251 22.7127 97.2394 23.2158C97.4538 23.7187 97.8121 24.1474 98.2696 24.4481C98.7271 24.7488 99.2634 24.908 99.8112 24.9059C100.186 24.9218 100.561 24.8584 100.91 24.7198C101.259 24.5812 101.574 24.3706 101.836 24.1018C102.098 23.8329 102.299 23.5119 102.428 23.1599C102.557 22.8078 102.609 22.4326 102.582 22.0588Z" fill="#28AD88"/>
<path id="Vector_9" d="M116.885 24.3882C116.885 27.0706 114.526 28.2118 112.027 28.2118C111.007 28.3033 109.984 28.0876 109.088 27.5927C108.193 27.0978 107.467 26.3462 107.004 25.4353L110.046 23.7176C110.166 24.1374 110.428 24.5032 110.786 24.7538C111.145 25.0044 111.578 25.1245 112.015 25.0941C112.852 25.0941 113.277 24.8353 113.277 24.3647C113.277 23.0823 107.534 23.7647 107.534 19.7294C107.534 17.1882 109.68 15.9176 112.109 15.9176C113.032 15.8763 113.95 16.0854 114.764 16.5225C115.577 16.9595 116.257 17.6083 116.731 18.4L113.689 20C113.555 19.6965 113.335 19.4383 113.057 19.2567C112.779 19.0751 112.454 18.9778 112.121 18.9765C111.508 18.9765 111.142 19.2118 111.142 19.6235C111.142 20.9647 116.885 20.0823 116.885 24.3882Z" fill="#28AD88"/>
<path id="Vector_10" d="M129.701 16.2353V27.8824H126.164V26.7882C125.762 27.2726 125.252 27.6558 124.675 27.9072C124.097 28.1586 123.469 28.2709 122.839 28.2353C120.481 28.2353 118.465 26.5529 118.465 23.4118V16.2353H122.002V22.8824C121.974 23.1602 122.007 23.4408 122.099 23.7048C122.191 23.9687 122.338 24.2096 122.531 24.4111C122.726 24.6123 122.962 24.7693 123.222 24.8711C123.483 24.9727 123.762 25.0167 124.042 25C125.315 25 126.211 24.2471 126.211 22.6471V16.2353H129.701Z" fill="#28AD88"/>
<path id="Vector_11" d="M149.746 20.7294V27.8824H146.209V21.0353C146.209 19.8588 145.655 19.1294 144.535 19.1294C143.414 19.1294 142.707 19.9412 142.707 21.3176V27.8824H139.17V21.0353C139.17 19.8588 138.616 19.1294 137.495 19.1294C136.375 19.1294 135.668 19.9412 135.668 21.3176V27.8824H132.13V16.2353H135.668V17.3059C136.034 16.8329 136.512 16.4584 137.06 16.216C137.607 15.9736 138.208 15.8711 138.804 15.9176C139.402 15.8865 139.999 16.0112 140.534 16.2793C141.069 16.5474 141.526 16.9499 141.858 17.4471C142.247 16.9275 142.761 16.5148 143.353 16.2474C143.944 15.9799 144.595 15.8665 145.242 15.9176C148.001 15.9176 149.746 17.8235 149.746 20.7294Z" fill="#28AD88"/>
<path id="Vector_12" d="M152.718 16.1647C154.15 16.1647 155.312 15.0059 155.312 13.5765C155.312 12.1471 154.15 10.9882 152.718 10.9882C151.285 10.9882 150.124 12.1471 150.124 13.5765C150.124 15.0059 151.285 16.1647 152.718 16.1647Z" fill="#28AD88"/>
</g>
</svg>
