<svg width="13" height="12" viewBox="0 0 13 12" fill="none" xmlns="http://www.w3.org/2000/svg">
<path id="Vector" d="M6.69206 1.08512L6.5057 1.29075L6.31933 1.08453C5.67561 0.385215 4.80835 -0.00454659 3.90625 4.00264e-05C3.00414 0.00462664 2.14016 0.403191 1.50227 1.10903C0.86438 1.81486 0.504181 2.77086 0.500036 3.76905C0.495891 4.76724 0.848135 5.72687 1.48014 6.43916L1.6665 6.64538L6.5057 12L11.3449 6.64538L11.5313 6.43916C12.1582 5.72576 12.5062 4.76792 12.4999 3.77283C12.4936 2.77775 12.1335 1.8254 11.4976 1.12179C10.8616 0.418174 10.0009 0.0198588 9.10163 0.0129964C8.20232 0.00613411 7.33673 0.391276 6.69206 1.08512Z" fill="white"/>
</svg>
