<svg width="40" height="40" viewBox="0 0 40 40" fill="none" xmlns="http://www.w3.org/2000/svg">
<g id="Verified Icon">
<path id="Vector" d="M18.3329 38.3073C8.22484 38.3073 0 30.0827 0 19.9747C0 9.86669 8.22484 1.64185 18.3329 1.64185C21.8478 1.64185 25.2675 2.6434 28.2224 4.54001C28.8025 4.91353 28.9725 5.68682 28.599 6.26847C28.2242 6.85012 27.4524 7.01826 26.8708 6.64505C24.3208 5.00661 21.3677 4.14177 18.3329 4.14177C9.60297 4.14177 2.49992 11.2448 2.49992 19.9747C2.49992 28.7043 9.60297 35.8073 18.3329 35.8073C27.0624 35.8073 34.1655 28.7043 34.1655 19.9747C34.1655 19.4529 34.1405 18.9362 34.0923 18.4281C34.0257 17.7397 34.5289 17.1296 35.2156 17.0631C35.9056 16.9996 36.5138 17.4998 36.5806 18.1864C36.637 18.7748 36.6654 19.3714 36.6654 19.9747C36.6654 30.0827 28.4409 38.3073 18.3329 38.3073Z" fill="white"/>
<path id="Vector_2" d="M20.4159 24.1411C20.0961 24.1411 19.776 24.0194 19.5328 23.7746L12.033 16.2749C11.5447 15.7863 11.5447 14.9947 12.033 14.5064C12.5213 14.0182 13.3129 14.0182 13.8011 14.5064L20.4178 21.123L37.8653 3.67516C38.3539 3.18689 39.1455 3.18689 39.6338 3.67516C40.122 4.16343 40.122 4.95503 39.6338 5.44329L21.3009 23.7762C21.0559 24.0194 20.736 24.1411 20.4159 24.1411Z" fill="white"/>
</g>
</svg>
